<svg id="Layer_1" data-name="Layer 1" xmlns="http://www.w3.org/2000/svg" viewBox="0 0 1244.74 384.11"><defs><style>.cls-1,.cls-2{fill:#0373fc;}.cls-2{stroke:#0373fc;}.cls-2,.cls-3{stroke-miterlimit:10;}.cls-3{stroke:#000;}</style></defs><title>Artboard 3</title><path class="cls-1" d="M596.36,47.61h20.51S603.54,6.25,557.05,6.25s-66,39.31-66,67.68c0,34.87,24.62,66.32,68.37,66.32,41.71,0,61.36-41.15,61.36-41.15S637.38,59.23,643.53,48s22.74-21.32,41.54-21.32S729.68,40.09,730,73.25s-29.4,46.83-46.49,46.83-31.45-10.6-36.92-18.46H626.44v50.25H648V129.65s14.7,10.6,37.6,10.6,64.26-16.07,64.95-67.34S707.46,6.25,689,6.25c-22.22,0-52.65,2.73-69.74,45.12s-29.75,67.41-61.19,68.37c-25.69.78-46.48-20.74-46.83-45.81-.34-24.61,17.5-47.3,47.58-47.3C583.09,26.63,596.36,47.61,596.36,47.61Z"/><path class="cls-2" d="M77.24,290.66C72.61,293,63.09,295.48,51,295.48c-28,0-49-18-49-51.21,0-31.73,21-53,51.87-53,12.28,0,20.2,2.65,23.58,4.45l-3.16,10.63a46.53,46.53,0,0,0-20-4.16c-23.34,0-38.76,15.16-38.76,41.71,0,24.73,14,40.54,38.08,40.54,7.89,0,15.84-1.62,21.05-4.15Z"/><path class="cls-3" d="M155.25,256.94c0,26.86-18.32,38.61-35.46,38.61-19.34,0-34.28-14.34-34.28-37.37,0-24.27,15.69-38.47,35.41-38.47C141.42,219.71,155.25,234.84,155.25,256.94Zm-56.54.84c0,15.91,9,27.89,21.61,27.89,12.44,0,21.73-11.82,21.73-28.28,0-12.27-6.08-27.79-21.49-27.79C105.33,229.6,98.71,244,98.71,257.78Z"/><path class="cls-3" d="M230.68,274.05c0,7.61.24,14.12.59,19.85H219.81L219.12,282h-.36a26.56,26.56,0,0,1-23.6,13.51c-11.16,0-24.56-6.36-24.56-31.79v-42.4h12.9v40.08c0,13.82,4.24,23.23,15.94,23.23,8.69,0,14.76-6.19,17.16-12.11a20.67,20.67,0,0,0,1.18-6.77V221.36h12.9Z"/><path class="cls-3" d="M251.7,241c0-7.57-.24-13.58-.59-19.6h11.46l.71,11.93h.37c3.5-6.81,11.79-13.58,23.57-13.58,9.79,0,25.13,6,25.13,30.92V293.9h-12.9V252.08c0-11.73-4.35-21.55-16.49-21.55-8.51,0-15.14,6.15-17.47,13.54a21.11,21.11,0,0,0-.89,6.12V293.9H251.7Z"/><path class="cls-3" d="M347.91,200.48v20.88h18.63v10H347.91v39.09c0,9,2.55,14.14,9.8,14.14a25.65,25.65,0,0,0,7.52-.95l.59,10a32.58,32.58,0,0,1-11.59,1.82c-6,0-10.91-2-14-5.59-3.58-4-5-10.4-5-18.92V231.36h-11v-10h11V203.89Z"/><path class="cls-3" d="M380.53,244c0-8.57-.21-15.87-.59-22.6H391.3l.5,14.23h.46c3.33-9.73,11.19-15.88,19.85-15.88a14.14,14.14,0,0,1,3.61.38v12.4a20.52,20.52,0,0,0-4.41-.38c-9.14,0-15.6,7-17.36,16.88a35,35,0,0,0-.52,6.16V293.9h-12.9Z"/><path class="cls-3" d="M436.54,221.36l15.58,42.88c1.68,4.8,3.42,10.48,4.59,14.8h.36c1.27-4.27,2.85-9.83,4.55-15.09l14.11-42.59h13.75L470,273c-9.24,24.94-15.59,37.63-24.42,45.49-6.41,5.64-12.73,7.89-15.9,8.47l-3.22-11a33.86,33.86,0,0,0,11.36-6.45,41.7,41.7,0,0,0,10.84-14.69,8,8,0,0,0,1-3.18,8.69,8.69,0,0,0-.91-3.39l-26.29-66.91Z"/><path class="cls-3" d="M507.54,221.36l9.57,36.81c2.06,8.1,3.87,15.69,5.31,23.15h.35c1.59-7.3,4-15.18,6.39-23l11.65-36.92h10.91l11.09,36.28c2.55,8.61,4.65,16.3,6.3,23.68h.35c1.29-7.35,3.22-15,5.53-23.56l10.18-36.4H598l-23,72.54H563.15l-10.84-34.61A222.22,222.22,0,0,1,546,235.37h-.3a215.44,215.44,0,0,1-6.53,24L527.7,293.9H515.84l-21.49-72.54Z"/><path class="cls-3" d="M624.88,200.86a7.89,7.89,0,0,1-8.25,8.2c-4.69,0-7.84-3.72-7.83-8.2a8,8,0,0,1,8.06-8.21C621.7,192.65,624.84,196.25,624.88,200.86Zm-14.49,93V221.36h12.9V293.9Z"/><path class="cls-3" d="M705.83,187.41v87.78c0,6.45.25,13.71.59,18.71H694.89l-.65-12.54h-.35c-4,8.1-12.54,14.19-24.19,14.19-17.27,0-30.6-14.86-30.6-36.85-.11-24.25,14.68-39,32-39,10.94,0,18.31,5.22,21.51,11h.29V187.41Zm-12.89,63.47a27.7,27.7,0,0,0-.54-5.64c-2-8.32-9-15.18-18.78-15.18-13.43,0-21.46,12-21.46,27.92,0,14.73,7.21,27,21.19,27,8.68,0,16.56-6,18.95-15.84a21.52,21.52,0,0,0,.64-5.66Z"/><path class="cls-3" d="M734.11,260c.26,17.83,11.38,25.18,24.4,25.18,9.28,0,15-1.69,19.75-3.72l2.27,9.37c-4.53,2.11-12.46,4.63-23.79,4.63-21.91,0-35.08-14.85-35.08-36.61,0-22,12.73-39.16,33.55-39.16,23.26,0,29.34,20.77,29.34,34.12a32.71,32.71,0,0,1-.44,6.19Zm37.95-9.49c.13-8.32-3.34-21.36-17.88-21.36-13.24,0-18.88,12.17-19.91,21.36Z"/><path class="cls-2" d="M800.5,194a138.57,138.57,0,0,1,24.7-2c12.6,0,21.92,3,27.86,8.4,5.39,4.84,8.74,12.17,8.74,21.17,0,9.16-2.69,16.39-7.73,21.63-6.85,7.39-17.82,11.07-30.36,11.07a41.08,41.08,0,0,1-10.38-.94V293.9H800.5Zm12.83,48.68A38.78,38.78,0,0,0,824,243.86c15.56,0,25-7.77,25-21.58,0-13.39-9.38-19.93-23.46-19.93a61.24,61.24,0,0,0-12.14,1Z"/><path class="cls-3" d="M875.59,244c0-8.57-.21-15.87-.59-22.6h11.36l.49,14.23h.47c3.33-9.73,11.19-15.88,19.85-15.88a14.14,14.14,0,0,1,3.61.38v12.4a20.52,20.52,0,0,0-4.41-.38c-9.14,0-15.6,7-17.36,16.88a35,35,0,0,0-.52,6.16V293.9h-12.9Z"/><path class="cls-3" d="M986.29,256.94c0,26.86-18.31,38.61-35.45,38.61-19.34,0-34.28-14.34-34.28-37.37,0-24.27,15.69-38.47,35.41-38.47C972.47,219.71,986.29,234.84,986.29,256.94Zm-56.53.84c0,15.91,9,27.89,21.61,27.89,12.43,0,21.73-11.82,21.73-28.28,0-12.27-6.08-27.79-21.49-27.79C936.38,229.6,929.76,244,929.76,257.78Z"/><path class="cls-3" d="M1053.09,291.28a48.61,48.61,0,0,1-20.46,4.2c-21.5,0-35.57-14.89-35.57-37.07,0-22.36,15-38.67,38.3-38.67,7.65,0,14.53,2,18,3.86l-2.88,10.13a31.11,31.11,0,0,0-15.16-3.49c-16.27,0-25.19,12.41-25.15,27.48,0,16.8,10.62,27.14,24.83,27.14a37.25,37.25,0,0,0,15.88-3.48Z"/><path class="cls-3" d="M1074.08,260c.26,17.83,11.38,25.18,24.4,25.18,9.28,0,15-1.69,19.75-3.72l2.27,9.37c-4.53,2.11-12.46,4.63-23.79,4.63-21.91,0-35.08-14.85-35.08-36.61,0-22,12.73-39.16,33.55-39.16,23.26,0,29.34,20.77,29.34,34.12a32.71,32.71,0,0,1-.44,6.19Zm38-9.49c.13-8.32-3.34-21.36-17.88-21.36-13.24,0-18.88,12.17-19.91,21.36Z"/><path class="cls-3" d="M1138.26,280.47a35,35,0,0,0,17.19,5.17c9.46,0,13.85-4.74,13.85-10.8,0-6.35-3.77-9.67-13.25-13.29-12.88-4.74-19-11.87-19-20.57,0-11.68,9.34-21.27,24.67-21.27a34,34,0,0,1,17.46,4.47l-3.22,9.59a27.69,27.69,0,0,0-14.63-4.27c-7.65,0-11.81,4.49-11.81,9.95,0,6,4.2,8.69,13.54,12.37,12.29,4.66,18.67,11,18.71,21.8,0,12.86-9.82,21.86-26.67,21.86a40.15,40.15,0,0,1-20-5.06Z"/><path class="cls-3" d="M1196.05,280.47a35,35,0,0,0,17.19,5.17c9.47,0,13.85-4.74,13.85-10.8,0-6.35-3.77-9.67-13.25-13.29-12.88-4.74-19-11.87-18.94-20.57,0-11.68,9.33-21.27,24.66-21.27a33.94,33.94,0,0,1,17.46,4.47l-3.22,9.59a27.65,27.65,0,0,0-14.62-4.27c-7.66,0-11.82,4.49-11.82,9.95,0,6,4.2,8.69,13.54,12.37,12.29,4.66,18.68,11,18.71,21.8,0,12.86-9.82,21.86-26.67,21.86a40.08,40.08,0,0,1-20-5.06Z"/><path d="M118.19,357.46l-3.39,11.12h-7.5l12.75-39.35h9.23l12.91,39.35H134.4l-3.59-11.12ZM129.61,352l-3.13-9.69c-.76-2.44-1.42-5.12-2-7.4h-.13c-.58,2.31-1.19,5-1.89,7.37L119.38,352Z"/><path d="M147.63,348.61c0-3.28-.1-6-.23-8.45h6.33l.36,4.26h.17a10.48,10.48,0,0,1,9.14-4.91c5,0,10.2,3.19,10.2,12.19v16.88h-7.26v-16c0-4.08-1.51-7.18-5.47-7.18a6,6,0,0,0-5.65,4.22,7,7,0,0,0-.33,2.28v16.72h-7.26Z"/><path d="M202.68,357.46l-3.39,11.12h-7.5l12.75-39.35h9.23l12.9,39.35h-7.78l-3.6-11.12ZM214.1,352,211,342.33c-.77-2.44-1.42-5.12-2-7.4h-.13c-.58,2.31-1.19,5-1.89,7.37L203.86,352Z"/><path d="M239.83,332v8.15h6.9v5.35h-6.9v12.55c0,3.47.93,5.24,3.71,5.24a11.13,11.13,0,0,0,2.81-.31l.15,5.47a16.52,16.52,0,0,1-5.28.74,8.42,8.42,0,0,1-6.23-2.35c-1.56-1.63-2.27-4.24-2.27-8V345.51h-4.09v-5.35h4.09v-6.44Z"/><path d="M261,332v8.15h6.9v5.35H261v12.55c0,3.47.94,5.24,3.71,5.24a11.28,11.28,0,0,0,2.82-.31l.14,5.47a16.5,16.5,0,0,1-5.27.74,8.43,8.43,0,0,1-6.24-2.35c-1.56-1.63-2.27-4.24-2.27-8V345.51h-4.09v-5.35h4.09v-6.44Z"/><path d="M300.73,354.09c0,10.45-7.4,15.14-14.73,15.14-8.1,0-14.36-5.54-14.36-14.65,0-9.33,6.2-15.07,14.84-15.07S300.73,345.47,300.73,354.09Zm-21.63.31c0,5.47,2.75,9.6,7.13,9.6,4.16,0,7-4,7-9.7,0-4.46-2-9.56-7-9.56S279.1,349.66,279.1,354.4Z"/><path d="M307.18,349.3c0-3.81-.08-6.61-.24-9.14h6.28l.27,5.4h.2a8.55,8.55,0,0,1,7.86-6.05,6.92,6.92,0,0,1,1.7.16v6.77a9.82,9.82,0,0,0-2.13-.21,6.39,6.39,0,0,0-6.5,5.44,12.13,12.13,0,0,0-.18,2.17v14.74h-7.26Z"/><path d="M328.69,348.61c0-3.28-.11-6-.24-8.45h6.34l.36,4.26h.16a10.48,10.48,0,0,1,9.14-4.91c5,0,10.2,3.19,10.2,12.19v16.88h-7.26v-16c0-4.08-1.51-7.18-5.47-7.18a6,6,0,0,0-5.64,4.22,6.77,6.77,0,0,0-.33,2.28v16.72h-7.26Z"/><path d="M368,356.36c.2,5.15,4.22,7.4,8.86,7.4a22,22,0,0,0,7.92-1.32l1.07,4.95a26,26,0,0,1-10,1.81c-9.31,0-14.77-5.71-14.77-14.42,0-7.84,4.8-15.27,14-15.27s12.36,7.6,12.36,13.83a14.72,14.72,0,0,1-.26,3Zm12.62-5c0-2.64-1.13-6.93-6-6.93-4.47,0-6.33,4-6.65,6.93Z"/><path d="M398.08,340.16l5.18,15.23c.57,1.77,1.19,3.94,1.61,5.52H405c.45-1.6,1-3.74,1.52-5.57l4.49-15.18h7.74l-7.19,19.4c-3.93,10.61-6.6,15.32-10,18.27a15.18,15.18,0,0,1-7.61,3.64l-1.64-6.05a13.13,13.13,0,0,0,4.19-2,12.35,12.35,0,0,0,4-4.53,2.67,2.67,0,0,0,.46-1.26,3.46,3.46,0,0,0-.38-1.4l-10.54-26.1Z"/><path d="M436.26,360.74a20.21,20.21,0,0,0,9.6,2.51c4.63,0,7.22-2.15,7.22-5.37,0-3-2-4.72-7-6.53-6.56-2.31-10.75-5.8-10.75-11.44,0-6.45,5.44-11.3,14.06-11.3a21.17,21.17,0,0,1,9.51,1.95l-1.73,5.8a17.24,17.24,0,0,0-7.93-1.87c-4.61,0-6.56,2.43-6.56,4.74,0,3,2.29,4.44,7.59,6.45,6.9,2.61,10.22,6,10.22,11.69,0,6.34-4.81,11.83-15.06,11.83a23.33,23.33,0,0,1-10.73-2.5Z"/><path d="M492.86,360.07c0,3.37.11,6.2.24,8.51h-6.34l-.35-4.29h-.17a10.41,10.41,0,0,1-9.18,4.94c-5.23,0-10-3.12-10-12.4V340.16h7.26v15.47c0,4.72,1.5,7.74,5.35,7.74a6,6,0,0,0,5.93-6.06V340.16h7.25Z"/><path d="M501.19,349.58c0-3.69-.1-6.75-.23-9.42h6.37l.35,4.36h.12a11.15,11.15,0,0,1,9.83-5c6.58,0,12,5.59,12,14.46,0,10.31-6.51,15.26-13,15.26-3.6,0-6.6-1.5-8.06-3.8h-.12v14.72h-7.25Zm7.25,7.1a9.29,9.29,0,0,0,.2,2,6.56,6.56,0,0,0,6.37,5c4.6,0,7.3-3.79,7.3-9.37,0-5-2.47-9.12-7.13-9.12a6.79,6.79,0,0,0-6.48,5.32,7.91,7.91,0,0,0-.26,1.81Z"/><path d="M536.13,349.58c0-3.69-.1-6.75-.23-9.42h6.37l.35,4.36h.12a11.15,11.15,0,0,1,9.83-5c6.58,0,12,5.59,12,14.46,0,10.31-6.51,15.26-13,15.26-3.61,0-6.6-1.5-8.06-3.8h-.12v14.72h-7.25Zm7.25,7.1a8.68,8.68,0,0,0,.2,2,6.56,6.56,0,0,0,6.37,5c4.6,0,7.3-3.79,7.3-9.37,0-5-2.47-9.12-7.13-9.12a6.79,6.79,0,0,0-6.48,5.32,7.39,7.39,0,0,0-.26,1.81Z"/><path d="M598.44,354.09c0,10.45-7.4,15.14-14.73,15.14-8.09,0-14.35-5.54-14.35-14.65,0-9.33,6.19-15.07,14.84-15.07S598.44,345.47,598.44,354.09Zm-21.63.31c0,5.47,2.76,9.6,7.13,9.6,4.16,0,7-4,7-9.7,0-4.46-2-9.56-7-9.56S576.81,349.66,576.81,354.4Z"/><path d="M604.89,349.3c0-3.81-.08-6.61-.24-9.14h6.29l.26,5.4h.21a8.53,8.53,0,0,1,7.85-6.05,6.87,6.87,0,0,1,1.7.16v6.77a9.82,9.82,0,0,0-2.13-.21,6.39,6.39,0,0,0-6.5,5.44,12.13,12.13,0,0,0-.18,2.17v14.74h-7.26Z"/><path d="M636,332v8.15h6.9v5.35H636v12.55c0,3.47.94,5.24,3.71,5.24a11.28,11.28,0,0,0,2.82-.31l.15,5.47a16.52,16.52,0,0,1-5.28.74,8.38,8.38,0,0,1-6.23-2.35c-1.56-1.63-2.27-4.24-2.27-8V345.51h-4.1v-5.35h4.1v-6.44Z"/><path d="M661.62,360.74a20.21,20.21,0,0,0,9.6,2.51c4.63,0,7.22-2.15,7.22-5.37,0-3-2-4.72-7-6.53-6.56-2.31-10.75-5.8-10.75-11.44,0-6.45,5.44-11.3,14.06-11.3a21.26,21.26,0,0,1,9.52,1.95l-1.74,5.8a17.24,17.24,0,0,0-7.93-1.87c-4.61,0-6.56,2.43-6.56,4.74,0,3,2.3,4.44,7.6,6.45,6.89,2.61,10.21,6,10.21,11.69,0,6.34-4.81,11.83-15.06,11.83A23.33,23.33,0,0,1,660,366.7Z"/><path d="M698,356.36c.2,5.15,4.22,7.4,8.86,7.4a22,22,0,0,0,7.92-1.32l1.07,4.95a26,26,0,0,1-10,1.81c-9.32,0-14.77-5.71-14.77-14.42,0-7.84,4.8-15.27,14-15.27s12.36,7.6,12.36,13.83a14.72,14.72,0,0,1-.26,3Zm12.62-5c0-2.64-1.13-6.93-6-6.93-4.46,0-6.32,4-6.64,6.93Z"/><path d="M723.79,349.3c0-3.81-.08-6.61-.24-9.14h6.28l.27,5.4h.2a8.54,8.54,0,0,1,7.85-6.05,7,7,0,0,1,1.71.16v6.77a9.88,9.88,0,0,0-2.13-.21,6.38,6.38,0,0,0-6.5,5.44,12.09,12.09,0,0,0-.19,2.17v14.74h-7.25Z"/><path d="M751.11,340.16l4.65,14.43c.81,2.5,1.42,4.79,2,7.11h.18c.54-2.36,1.17-4.59,2-7.11l4.54-14.43H772l-10.94,28.42h-7.15l-10.65-28.42Z"/><path d="M784.62,332.2a3.84,3.84,0,0,1-4.14,3.88,3.79,3.79,0,0,1-4-3.88,4.06,4.06,0,0,1,8.11,0Zm-7.68,36.38V340.16h7.25v28.42Z"/><path d="M813.53,367.73a20.73,20.73,0,0,1-8.09,1.47c-9,0-14.79-5.72-14.79-14.54,0-8.51,5.87-15.13,16-15.13a18.91,18.91,0,0,1,7,1.3l-1.29,5.4a12.34,12.34,0,0,0-5.48-1.11c-5.53,0-8.81,4-8.78,9.22,0,5.83,3.86,9.17,8.8,9.17a14.27,14.27,0,0,0,5.7-1.12Z"/><path d="M824,356.36c.19,5.15,4.22,7.4,8.86,7.4a21.94,21.94,0,0,0,7.91-1.32l1.08,4.95a26,26,0,0,1-10,1.81c-9.31,0-14.76-5.71-14.76-14.42,0-7.84,4.8-15.27,14-15.27s12.36,7.6,12.36,13.83a15.66,15.66,0,0,1-.25,3Zm12.61-5c0-2.64-1.12-6.93-6-6.93-4.46,0-6.32,4-6.64,6.93Z"/><path d="M849.41,362a16,16,0,0,0,7.32,2.08c3.19,0,4.61-1.33,4.61-3.19s-1.18-2.91-4.71-4.15c-5.61-1.9-8-4.93-7.92-8.3,0-5,4.19-8.9,10.88-8.9a16.64,16.64,0,0,1,7.61,1.7l-1.44,5.05a13.1,13.1,0,0,0-6.07-1.64c-2.58,0-4,1.26-4,3s1.38,2.67,5,4c5.22,1.83,7.63,4.47,7.66,8.66,0,5.19-4.08,8.93-11.65,8.93a18.81,18.81,0,0,1-8.74-2Z"/><path d="M916.22,367.42a25.89,25.89,0,0,1-10.31,1.78c-12.59,0-20.26-7.84-20.26-19.83,0-12.94,9.11-20.76,21.25-20.76,4.78,0,8.15,1,9.62,1.74l-1.58,5.73a19.05,19.05,0,0,0-7.74-1.54c-8.09,0-13.92,5-13.92,14.47,0,8.68,5.1,14.17,13.83,14.17a21.47,21.47,0,0,0,7.91-1.42Z"/><path d="M948.89,354.09c0,10.45-7.4,15.14-14.74,15.14-8.09,0-14.35-5.54-14.35-14.65,0-9.33,6.2-15.07,14.84-15.07S948.89,345.47,948.89,354.09Zm-21.64.31c0,5.47,2.76,9.6,7.14,9.6,4.15,0,7-4,7-9.7,0-4.46-2-9.56-7-9.56S927.25,349.66,927.25,354.4Z"/><path d="M955.34,348.61c0-3.28-.11-6-.24-8.45h6.2l.33,4.17h.17a9.9,9.9,0,0,1,8.83-4.82,8.25,8.25,0,0,1,8,5.25h.11a11.78,11.78,0,0,1,3.51-3.58,10.06,10.06,0,0,1,5.83-1.67c4.74,0,9.57,3.22,9.57,12.34v16.73h-7.07V352.86c0-4.74-1.65-7.52-5.11-7.52a5.46,5.46,0,0,0-5,3.78,8.1,8.1,0,0,0-.37,2.4v17.06h-7.07V352.15c0-4-1.61-6.81-5-6.81a5.75,5.75,0,0,0-5.22,4.06,7.19,7.19,0,0,0-.36,2.38v16.8h-7.07Z"/><path d="M1005.77,349.58c0-3.69-.11-6.75-.24-9.42h6.37l.36,4.36h.12a11.12,11.12,0,0,1,9.83-5c6.57,0,12,5.59,12,14.46,0,10.31-6.51,15.26-13,15.26-3.61,0-6.6-1.5-8.07-3.8H1013v14.72h-7.25Zm7.25,7.1a8.68,8.68,0,0,0,.2,2,6.55,6.55,0,0,0,6.36,5c4.61,0,7.31-3.79,7.31-9.37,0-5-2.47-9.12-7.14-9.12a6.78,6.78,0,0,0-6.47,5.32,7.39,7.39,0,0,0-.26,1.81Z"/><path d="M1056.85,368.58l-.5-3.16h-.18a10.5,10.5,0,0,1-8.45,3.81c-5.82,0-9-4.12-9-8.46,0-7.17,6.45-10.81,17-10.76v-.47c0-1.87-.74-5-5.82-5a15.41,15.41,0,0,0-7.71,2.12l-1.44-4.66a20.84,20.84,0,0,1,10.4-2.53c9.2,0,11.82,5.75,11.82,12v10.24a41.65,41.65,0,0,0,.45,6.84Zm-1-13.92c-5.12-.07-10,1-10,5.33a3.82,3.82,0,0,0,4.14,4.1,5.9,5.9,0,0,0,5.67-3.94,5.24,5.24,0,0,0,.21-1.56Z"/><path d="M1071.11,348.61c0-3.28-.1-6-.23-8.45h6.34l.35,4.26h.17a10.48,10.48,0,0,1,9.14-4.91c5,0,10.2,3.19,10.2,12.19v16.88h-7.26v-16c0-4.08-1.51-7.18-5.47-7.18a6,6,0,0,0-5.65,4.22,7,7,0,0,0-.33,2.28v16.72h-7.26Z"/><path d="M1108.87,340.16l5.17,15.23c.57,1.77,1.2,3.94,1.62,5.52h.17c.45-1.6,1-3.74,1.52-5.57l4.49-15.18h7.73l-7.18,19.4c-3.94,10.61-6.6,15.32-10,18.27a15.15,15.15,0,0,1-7.6,3.64l-1.64-6.05a13.13,13.13,0,0,0,4.19-2,12.35,12.35,0,0,0,4-4.53,2.67,2.67,0,0,0,.46-1.26,3.46,3.46,0,0,0-.38-1.4l-10.54-26.1Z"/></svg>