<svg id="Layer_1" data-name="Layer 1" xmlns="http://www.w3.org/2000/svg" viewBox="0 0 1485.96 205.28"><defs><style>.cls-1,.cls-2{fill:#0373fc;}.cls-2{stroke:#0373fc;}.cls-2,.cls-3{stroke-miterlimit:10;}.cls-3{stroke:#000;}</style></defs><title>Artboard 2</title><path class="cls-1" d="M79.64,44.17H95S85,13.28,50.28,13.28,1,42.64,1,63.83c0,26,18.38,49.53,51.06,49.53,31.15,0,45.84-30.73,45.84-30.73s12.38-29.78,17-38.2,17-15.93,31-15.93,33.31,10,33.57,34.82-22,35-34.73,35-23.48-7.92-27.57-13.79H102.11V122h16.08V105.45s11,7.91,28.09,7.91,48-12,48.51-50.3-32.17-49.78-46-49.78c-16.6,0-39.32,2-52.09,33.7S74.52,97.33,51,98c-19.19.59-34.72-15.49-35-34.21C15.81,45.45,29.13,28.5,51.6,28.5,69.73,28.5,79.64,44.17,79.64,44.17Z"/><path class="cls-2" d="M319.34,111.63c-4.63,2.37-14.15,4.82-26.26,4.82-28,0-49-18-49-51.21,0-31.73,21-53,51.87-53,12.27,0,20.19,2.65,23.58,4.45l-3.17,10.63a46.49,46.49,0,0,0-20-4.17c-23.33,0-38.75,15.17-38.75,41.72,0,24.73,14,40.53,38.07,40.53,7.9,0,15.84-1.61,21.05-4.14Z"/><path class="cls-3" d="M397.34,77.9c0,26.87-18.32,38.62-35.45,38.62-19.34,0-34.28-14.34-34.28-37.37,0-24.27,15.69-38.47,35.41-38.47C383.52,40.68,397.34,55.81,397.34,77.9Zm-56.53.85c0,15.91,9,27.89,21.61,27.89,12.43,0,21.73-11.82,21.73-28.28,0-12.28-6.08-27.79-21.49-27.79C347.43,50.57,340.81,65,340.81,78.75Z"/><path class="cls-3" d="M472.77,95c0,7.61.25,14.11.59,19.85H461.91L461.22,103h-.37a26.55,26.55,0,0,1-23.6,13.51c-11.15,0-24.55-6.36-24.55-31.79V42.33h12.9V82.41c0,13.82,4.23,23.23,15.93,23.23,8.69,0,14.77-6.19,17.16-12.11a20.67,20.67,0,0,0,1.18-6.77V42.33h12.9Z"/><path class="cls-3" d="M493.8,61.92c0-7.56-.25-13.57-.59-19.59h11.45l.72,11.93h.36c3.51-6.81,11.8-13.58,23.58-13.58,9.79,0,25.12,6,25.12,30.92v43.27h-12.9V73.05c0-11.73-4.34-21.55-16.48-21.55-8.51,0-15.15,6.15-17.47,13.54a20.78,20.78,0,0,0-.89,6.12v43.71H493.8Z"/><path class="cls-3" d="M590,21.45V42.33h18.63v10H590V91.42c0,9,2.56,14.14,9.81,14.14a25.52,25.52,0,0,0,7.51-1l.59,10a32.47,32.47,0,0,1-11.58,1.82c-6,0-10.91-2-14-5.59-3.57-4-5-10.4-5-18.92V52.33h-11v-10h11V24.86Z"/><path class="cls-3" d="M622.62,64.92c0-8.56-.21-15.86-.59-22.59H633.4l.49,14.23h.46c3.33-9.73,11.2-15.88,19.86-15.88a14.54,14.54,0,0,1,3.6.37V53.46a20.46,20.46,0,0,0-4.41-.38c-9.14,0-15.59,7-17.35,16.88a35,35,0,0,0-.53,6.16v38.75h-12.9Z"/><path class="cls-3" d="M678.64,42.33l15.58,42.88c1.67,4.79,3.42,10.48,4.58,14.8h.37c1.27-4.27,2.84-9.83,4.55-15.09l14.1-42.59h13.76L712.07,94c-9.24,25-15.59,37.64-24.42,45.5-6.41,5.64-12.73,7.89-15.9,8.47l-3.22-11a33.73,33.73,0,0,0,11.36-6.44,41.82,41.82,0,0,0,10.84-14.69,8,8,0,0,0,1-3.18,8.81,8.81,0,0,0-.9-3.39L664.54,42.33Z"/><path class="cls-3" d="M749.63,42.33l9.58,36.81c2.06,8.1,3.86,15.69,5.3,23.15h.36c1.59-7.31,4-15.18,6.39-23l11.65-36.92h10.9l11.1,36.28c2.54,8.6,4.64,16.3,6.3,23.68h.34c1.3-7.35,3.22-15,5.54-23.56l10.18-36.4h12.78l-23,72.54H805.25L794.41,80.26a224.61,224.61,0,0,1-6.33-23.92h-.29a215.44,215.44,0,0,1-6.53,24l-11.46,34.5H757.94L736.45,42.33Z"/><path class="cls-3" d="M867,21.83A7.88,7.88,0,0,1,858.72,30c-4.69,0-7.83-3.71-7.82-8.19A8,8,0,0,1,859,13.62C863.8,13.62,866.94,17.22,867,21.83Zm-14.49,93V42.33h12.91v72.54Z"/><path class="cls-3" d="M947.93,8.38V96.16c0,6.45.24,13.71.59,18.71H937l-.66-12.54H936c-4,8.1-12.55,14.19-24.19,14.19-17.28,0-30.6-14.86-30.6-36.85-.11-24.25,14.67-39,32-39,10.95,0,18.32,5.22,21.51,11h.3V8.38ZM935,71.85a27.72,27.72,0,0,0-.55-5.64c-2-8.32-9-15.18-18.77-15.18C902.29,51,894.26,63,894.26,79c0,14.73,7.21,27,21.19,27,8.68,0,16.56-6,18.95-15.84a22,22,0,0,0,.64-5.66Z"/><path class="cls-3" d="M976.21,81c.25,17.84,11.38,25.19,24.4,25.19,9.27,0,14.95-1.7,19.75-3.72l2.27,9.37c-4.54,2.11-12.46,4.63-23.79,4.63-21.91,0-35.08-14.85-35.08-36.61,0-22,12.72-39.16,33.54-39.16,23.27,0,29.35,20.77,29.35,34.12a33.38,33.38,0,0,1-.44,6.18Zm37.95-9.49c.13-8.31-3.35-21.35-17.89-21.35-13.23,0-18.87,12.17-19.91,21.35Z"/><path class="cls-2" d="M1042.6,15a137.46,137.46,0,0,1,24.7-2c12.6,0,21.92,3,27.85,8.4,5.39,4.84,8.74,12.16,8.74,21.17s-2.68,16.39-7.72,21.63c-6.85,7.39-17.83,11.07-30.37,11.07a41.6,41.6,0,0,1-10.38-.94v40.55H1042.6Zm12.82,48.68a38.9,38.9,0,0,0,10.65,1.14c15.56,0,25-7.77,25-21.58,0-13.39-9.39-19.93-23.47-19.93a61.32,61.32,0,0,0-12.14,1Z"/><path class="cls-3" d="M1117.68,64.92c0-8.56-.21-15.86-.59-22.59h11.37l.49,14.23h.46c3.33-9.73,11.19-15.88,19.86-15.88a14.54,14.54,0,0,1,3.6.37V53.46a20.46,20.46,0,0,0-4.41-.38c-9.14,0-15.59,7-17.35,16.88a35,35,0,0,0-.53,6.16v38.75h-12.9Z"/><path class="cls-3" d="M1228.39,77.9c0,26.87-18.32,38.62-35.46,38.62-19.34,0-34.27-14.34-34.27-37.37,0-24.27,15.68-38.47,35.4-38.47C1214.56,40.68,1228.39,55.81,1228.39,77.9Zm-56.54.85c0,15.91,9,27.89,21.62,27.89,12.43,0,21.72-11.82,21.72-28.28,0-12.28-6.07-27.79-21.49-27.79C1178.47,50.57,1171.85,65,1171.85,78.75Z"/><path class="cls-3" d="M1295.19,112.24a48.46,48.46,0,0,1-20.46,4.21c-21.5,0-35.58-14.89-35.58-37.07,0-22.36,15-38.67,38.31-38.67,7.64,0,14.52,2,18,3.86L1292.6,54.7a31.13,31.13,0,0,0-15.17-3.49c-16.26,0-25.18,12.41-25.15,27.47,0,16.81,10.62,27.15,24.84,27.15a37,37,0,0,0,15.87-3.49Z"/><path class="cls-3" d="M1316.18,81c.25,17.84,11.38,25.19,24.4,25.19,9.27,0,15-1.7,19.75-3.72l2.27,9.37c-4.54,2.11-12.46,4.63-23.79,4.63-21.91,0-35.08-14.85-35.08-36.61,0-22,12.72-39.16,33.54-39.16,23.27,0,29.35,20.77,29.35,34.12a32.35,32.35,0,0,1-.45,6.18Zm38-9.49c.13-8.31-3.35-21.35-17.89-21.35-13.23,0-18.87,12.17-19.91,21.35Z"/><path class="cls-3" d="M1380.36,101.44a34.88,34.88,0,0,0,17.18,5.17c9.47,0,13.86-4.74,13.86-10.8,0-6.35-3.77-9.67-13.25-13.29-12.88-4.74-19-11.87-19-20.57,0-11.68,9.33-21.27,24.67-21.27a34,34,0,0,1,17.46,4.47l-3.22,9.59a27.63,27.63,0,0,0-14.63-4.27c-7.65,0-11.81,4.48-11.81,10,0,6,4.19,8.69,13.54,12.37,12.29,4.66,18.67,11,18.7,21.8,0,12.85-9.82,21.86-26.66,21.86a40.12,40.12,0,0,1-20-5.06Z"/><path class="cls-3" d="M1438.15,101.44a34.91,34.91,0,0,0,17.18,5.17c9.47,0,13.86-4.74,13.86-10.8,0-6.35-3.77-9.67-13.25-13.29-12.88-4.74-19-11.87-19-20.57,0-11.68,9.33-21.27,24.67-21.27a34,34,0,0,1,17.46,4.47l-3.22,9.59a27.6,27.6,0,0,0-14.63-4.27c-7.65,0-11.81,4.48-11.81,10,0,6,4.19,8.69,13.54,12.37,12.29,4.66,18.67,11,18.71,21.8,0,12.85-9.82,21.86-26.67,21.86a40.12,40.12,0,0,1-20-5.06Z"/><path d="M360.29,178.43l-3.39,11.12h-7.5l12.74-39.36h9.24l12.9,39.36h-7.79l-3.59-11.12ZM371.7,173l-3.13-9.69c-.76-2.44-1.41-5.12-2-7.4h-.13c-.58,2.3-1.19,5-1.89,7.37L361.47,173Z"/><path d="M389.73,169.58c0-3.29-.11-6-.24-8.46h6.34l.36,4.27h.17a10.47,10.47,0,0,1,9.14-4.91c5,0,10.19,3.19,10.19,12.19v16.88h-7.26v-16c0-4.08-1.51-7.18-5.47-7.18a6,6,0,0,0-5.64,4.21,7.12,7.12,0,0,0-.33,2.28v16.73h-7.26Z"/><path d="M444.78,178.43l-3.39,11.12h-7.5l12.74-39.36h9.24l12.9,39.36H461l-3.59-11.12ZM456.19,173l-3.13-9.69c-.76-2.44-1.42-5.12-2-7.4h-.13c-.57,2.3-1.18,5-1.88,7.37L446,173Z"/><path d="M481.93,153v8.14h6.9v5.36h-6.9V179c0,3.48.93,5.25,3.7,5.25a11.22,11.22,0,0,0,2.82-.31l.15,5.47a16.52,16.52,0,0,1-5.28.74,8.38,8.38,0,0,1-6.23-2.35c-1.56-1.63-2.27-4.25-2.27-8V166.48h-4.09v-5.36h4.09v-6.43Z"/><path d="M503.08,153v8.14H510v5.36h-6.9V179c0,3.48.93,5.25,3.71,5.25a11.13,11.13,0,0,0,2.81-.31l.15,5.47a16.52,16.52,0,0,1-5.28.74,8.42,8.42,0,0,1-6.23-2.35c-1.56-1.63-2.27-4.25-2.27-8V166.48h-4.09v-5.36H496v-6.43Z"/><path d="M542.83,175.06c0,10.45-7.4,15.14-14.74,15.14-8.09,0-14.35-5.54-14.35-14.65,0-9.33,6.2-15.07,14.84-15.07S542.83,166.44,542.83,175.06Zm-21.64.31c0,5.47,2.76,9.6,7.14,9.6,4.15,0,7-4,7-9.7,0-4.46-2-9.57-7-9.57S521.19,170.63,521.19,175.37Z"/><path d="M549.27,170.26c0-3.8-.08-6.6-.23-9.14h6.28l.27,5.41h.2a8.53,8.53,0,0,1,7.85-6.05,6.87,6.87,0,0,1,1.7.16v6.77a9.78,9.78,0,0,0-2.12-.21,6.37,6.37,0,0,0-6.5,5.44,11.24,11.24,0,0,0-.19,2.17v14.74h-7.26Z"/><path d="M570.78,169.58c0-3.29-.1-6-.23-8.46h6.34l.35,4.27h.17a10.48,10.48,0,0,1,9.14-4.91c5,0,10.2,3.19,10.2,12.19v16.88h-7.26v-16c0-4.08-1.51-7.18-5.47-7.18a6,6,0,0,0-5.65,4.21,7.12,7.12,0,0,0-.33,2.28v16.73h-7.26Z"/><path d="M610.06,177.33c.19,5.15,4.22,7.4,8.86,7.4a21.94,21.94,0,0,0,7.91-1.32l1.08,5a26.22,26.22,0,0,1-10,1.81c-9.31,0-14.76-5.71-14.76-14.42,0-7.84,4.8-15.27,14-15.27s12.36,7.6,12.36,13.83a15.74,15.74,0,0,1-.25,3Zm12.61-5c0-2.64-1.12-6.93-6-6.93-4.46,0-6.32,4-6.64,6.93Z"/><path d="M640.18,161.12l5.17,15.24c.57,1.76,1.19,3.94,1.62,5.52h.17c.44-1.6,1-3.74,1.52-5.58l4.49-15.18h7.73l-7.18,19.4c-3.94,10.62-6.6,15.33-10,18.28a15.15,15.15,0,0,1-7.6,3.64l-1.64-6.06a13,13,0,0,0,4.19-2,12.52,12.52,0,0,0,4-4.53,2.67,2.67,0,0,0,.46-1.26,3.42,3.42,0,0,0-.38-1.4l-10.54-26.11Z"/><path d="M678.36,181.71a20.21,20.21,0,0,0,9.6,2.51c4.62,0,7.21-2.15,7.21-5.37,0-3-2-4.73-7-6.53-6.56-2.31-10.75-5.8-10.75-11.44,0-6.45,5.44-11.3,14.05-11.3a21.22,21.22,0,0,1,9.52,1.95l-1.73,5.8a17.29,17.29,0,0,0-7.94-1.87c-4.6,0-6.56,2.43-6.56,4.74,0,3,2.3,4.44,7.6,6.44,6.9,2.61,10.22,6.05,10.22,11.7,0,6.33-4.82,11.83-15.06,11.83a23.21,23.21,0,0,1-10.74-2.51Z"/><path d="M735,181c0,3.37.1,6.2.24,8.51h-6.34l-.35-4.29h-.17a10.43,10.43,0,0,1-9.19,4.94c-5.23,0-10-3.12-10-12.41V161.12h7.25v15.47c0,4.73,1.51,7.75,5.35,7.75a6,6,0,0,0,5.54-3.84,6.24,6.24,0,0,0,.39-2.22V161.12H735Z"/><path d="M743.29,170.55c0-3.69-.11-6.75-.24-9.43h6.37l.36,4.37h.12a11.15,11.15,0,0,1,9.83-5c6.57,0,12,5.58,12,14.46,0,10.31-6.51,15.26-13,15.26-3.61,0-6.6-1.5-8.06-3.8h-.12v14.72h-7.25Zm7.25,7.1a8.8,8.8,0,0,0,.2,2,6.57,6.57,0,0,0,6.37,5c4.6,0,7.3-3.79,7.3-9.37,0-5-2.47-9.12-7.13-9.12a6.78,6.78,0,0,0-6.48,5.32,7.33,7.33,0,0,0-.26,1.81Z"/><path d="M778.23,170.55c0-3.69-.11-6.75-.24-9.43h6.37l.36,4.37h.12a11.12,11.12,0,0,1,9.83-5c6.57,0,12,5.58,12,14.46,0,10.31-6.51,15.26-13,15.26-3.61,0-6.6-1.5-8.06-3.8h-.12v14.72h-7.25Zm7.25,7.1a8.8,8.8,0,0,0,.2,2,6.57,6.57,0,0,0,6.37,5c4.6,0,7.3-3.79,7.3-9.37,0-5-2.47-9.12-7.13-9.12a6.77,6.77,0,0,0-6.48,5.32,7.33,7.33,0,0,0-.26,1.81Z"/><path d="M840.54,175.06c0,10.45-7.4,15.14-14.73,15.14-8.1,0-14.36-5.54-14.36-14.65,0-9.33,6.2-15.07,14.84-15.07S840.54,166.44,840.54,175.06Zm-21.63.31c0,5.47,2.75,9.6,7.13,9.6,4.16,0,7.05-4,7.05-9.7,0-4.46-2-9.57-7-9.57S818.91,170.63,818.91,175.37Z"/><path d="M847,170.26c0-3.8-.08-6.6-.24-9.14H853l.27,5.41h.2a8.54,8.54,0,0,1,7.85-6.05,7,7,0,0,1,1.71.16v6.77a9.88,9.88,0,0,0-2.13-.21,6.38,6.38,0,0,0-6.5,5.44,12.09,12.09,0,0,0-.19,2.17v14.74H847Z"/><path d="M878.09,153v8.14H885v5.36h-6.9V179c0,3.48.94,5.25,3.71,5.25a11.28,11.28,0,0,0,2.82-.31l.14,5.47a16.5,16.5,0,0,1-5.27.74,8.43,8.43,0,0,1-6.24-2.35c-1.56-1.63-2.27-4.25-2.27-8V166.48h-4.09v-5.36H871v-6.43Z"/><path d="M903.72,181.71a20.21,20.21,0,0,0,9.6,2.51c4.63,0,7.22-2.15,7.22-5.37,0-3-2-4.73-7-6.53-6.56-2.31-10.75-5.8-10.75-11.44,0-6.45,5.44-11.3,14-11.3a21.22,21.22,0,0,1,9.52,1.95l-1.73,5.8a17.29,17.29,0,0,0-7.94-1.87c-4.6,0-6.55,2.43-6.55,4.74,0,3,2.29,4.44,7.59,6.44,6.9,2.61,10.22,6.05,10.22,11.7,0,6.33-4.82,11.83-15.06,11.83a23.2,23.2,0,0,1-10.73-2.51Z"/><path d="M940.12,177.33c.19,5.15,4.22,7.4,8.86,7.4a21.94,21.94,0,0,0,7.91-1.32l1.08,5a26.22,26.22,0,0,1-10,1.81c-9.31,0-14.76-5.71-14.76-14.42,0-7.84,4.8-15.27,14-15.27s12.36,7.6,12.36,13.83a14.8,14.8,0,0,1-.26,3Zm12.61-5c0-2.64-1.12-6.93-6-6.93-4.46,0-6.32,4-6.64,6.93Z"/><path d="M965.88,170.26c0-3.8-.08-6.6-.23-9.14h6.28l.27,5.41h.2a8.53,8.53,0,0,1,7.85-6.05,6.87,6.87,0,0,1,1.7.16v6.77a9.78,9.78,0,0,0-2.12-.21,6.36,6.36,0,0,0-6.5,5.44,11.24,11.24,0,0,0-.19,2.17v14.74h-7.26Z"/><path d="M993.2,161.12l4.65,14.44c.82,2.5,1.43,4.79,2,7.11h.17c.54-2.36,1.18-4.59,1.95-7.11l4.55-14.44h7.62l-11,28.43H996l-10.65-28.43Z"/><path d="M1026.71,153.17a3.83,3.83,0,0,1-4.13,3.87,3.79,3.79,0,0,1-4-3.87,4.05,4.05,0,0,1,8.1,0ZM1019,189.55V161.12h7.26v28.43Z"/><path d="M1055.63,188.7a20.78,20.78,0,0,1-8.1,1.47c-9,0-14.78-5.72-14.78-14.54,0-8.52,5.86-15.13,16-15.13a19,19,0,0,1,7,1.3l-1.29,5.4a12.39,12.39,0,0,0-5.49-1.11c-5.53,0-8.8,4-8.78,9.22,0,5.83,3.87,9.17,8.81,9.17a14.21,14.21,0,0,0,5.69-1.12Z"/><path d="M1066.09,177.33c.19,5.15,4.21,7.4,8.85,7.4a22,22,0,0,0,7.92-1.32l1.07,5a26.16,26.16,0,0,1-10,1.81c-9.31,0-14.77-5.71-14.77-14.42,0-7.84,4.81-15.27,14-15.27s12.36,7.6,12.36,13.83a14.8,14.8,0,0,1-.26,3Zm12.61-5c0-2.64-1.12-6.93-6-6.93-4.47,0-6.32,4-6.65,6.93Z"/><path d="M1091.51,182.94a16,16,0,0,0,7.31,2.08c3.19,0,4.62-1.33,4.62-3.2s-1.18-2.9-4.71-4.14c-5.61-1.91-8-4.93-7.93-8.3,0-5,4.19-8.9,10.89-8.9a16.56,16.56,0,0,1,7.6,1.7l-1.44,5a13,13,0,0,0-6.06-1.64c-2.58,0-4,1.26-4,3s1.39,2.67,5,4c5.22,1.83,7.63,4.47,7.65,8.66,0,5.19-4.07,8.93-11.65,8.93a18.64,18.64,0,0,1-8.73-2Z"/><path d="M1158.32,188.39a25.89,25.89,0,0,1-10.31,1.78c-12.59,0-20.27-7.84-20.27-19.83,0-12.94,9.12-20.76,21.26-20.76,4.77,0,8.15,1,9.62,1.74l-1.58,5.73a19.05,19.05,0,0,0-7.74-1.54c-8.09,0-13.92,5-13.92,14.47,0,8.68,5.1,14.17,13.82,14.17a21.49,21.49,0,0,0,7.92-1.42Z"/><path d="M1191,175.06c0,10.45-7.4,15.14-14.73,15.14-8.09,0-14.35-5.54-14.35-14.65,0-9.33,6.19-15.07,14.84-15.07S1191,166.44,1191,175.06Zm-21.63.31c0,5.47,2.76,9.6,7.13,9.6,4.16,0,7-4,7-9.7,0-4.46-2-9.57-7-9.57S1169.35,170.63,1169.35,175.37Z"/><path d="M1197.44,169.58c0-3.29-.11-6-.24-8.46h6.19l.34,4.18h.16a9.91,9.91,0,0,1,8.84-4.82,8.22,8.22,0,0,1,8,5.24h.12a11.74,11.74,0,0,1,3.51-3.57,10,10,0,0,1,5.83-1.67c4.74,0,9.57,3.22,9.57,12.34v16.73h-7.07V173.83c0-4.74-1.66-7.52-5.12-7.52a5.43,5.43,0,0,0-5,3.78,8.1,8.1,0,0,0-.37,2.4v17.06H1215V173.11c0-4-1.62-6.8-5-6.8a5.74,5.74,0,0,0-5.22,4.06,7.19,7.19,0,0,0-.36,2.38v16.8h-7.07Z"/><path d="M1247.86,170.55c0-3.69-.1-6.75-.23-9.43H1254l.35,4.37h.12a11.15,11.15,0,0,1,9.83-5c6.58,0,12,5.58,12,14.46,0,10.31-6.51,15.26-13,15.26-3.6,0-6.6-1.5-8.06-3.8h-.12v14.72h-7.25Zm7.25,7.1a9.43,9.43,0,0,0,.2,2,6.57,6.57,0,0,0,6.37,5c4.6,0,7.3-3.79,7.3-9.37,0-5-2.47-9.12-7.13-9.12a6.78,6.78,0,0,0-6.48,5.32,7.33,7.33,0,0,0-.26,1.81Z"/><path d="M1298.94,189.55l-.49-3.16h-.18a10.53,10.53,0,0,1-8.45,3.81c-5.82,0-9-4.13-9-8.46,0-7.17,6.44-10.81,17-10.76v-.47c0-1.87-.75-5-5.82-5a15.47,15.47,0,0,0-7.72,2.12l-1.43-4.67a20.92,20.92,0,0,1,10.39-2.52c9.2,0,11.83,5.75,11.83,12V182.7a43,43,0,0,0,.44,6.85Zm-1-13.92c-5.12-.07-10,1-10,5.33a3.82,3.82,0,0,0,4.13,4.1,5.91,5.91,0,0,0,5.68-3.94,5.57,5.57,0,0,0,.2-1.56Z"/><path d="M1313.21,169.58c0-3.29-.1-6-.24-8.46h6.34l.36,4.27h.17a10.47,10.47,0,0,1,9.14-4.91c5,0,10.19,3.19,10.19,12.19v16.88h-7.25v-16c0-4.08-1.52-7.18-5.48-7.18a6,6,0,0,0-5.64,4.21,7.12,7.12,0,0,0-.33,2.28v16.73h-7.26Z"/><path d="M1351,161.12l5.17,15.24c.57,1.76,1.19,3.94,1.62,5.52h.16c.45-1.6,1-3.74,1.53-5.58l4.49-15.18h7.73l-7.18,19.4c-3.94,10.62-6.6,15.33-10,18.28a15.15,15.15,0,0,1-7.6,3.64l-1.64-6.06a13.06,13.06,0,0,0,4.19-2,12.52,12.52,0,0,0,4-4.53,2.75,2.75,0,0,0,.45-1.26,3.42,3.42,0,0,0-.38-1.4L1343,161.12Z"/></svg>