<svg width="398" height="475" viewBox="0 0 398 475" fill="none" xmlns="http://www.w3.org/2000/svg">
<g opacity="0.5">
<path d="M294 392.988C294 434.909 259.834 469 217.847 469L0 469L1.18853e-08 468.003L217.847 468.003C259.28 468.003 292.989 434.356 292.989 393C292.989 351.644 259.28 317.997 217.847 317.997L1.8007e-06 317.997L1.81258e-06 317L217.847 317C259.834 317 294 351.091 294 393.012L294 392.988Z" fill="#ABD5FF"/>
<path d="M282.968 392.988C282.968 428.833 253.758 457.988 217.847 457.988L1.31311e-07 457.988L1.43197e-07 456.992L217.847 456.992C253.205 456.992 281.97 428.28 281.97 392.988C281.97 357.696 253.205 328.984 217.847 328.984L1.66967e-06 328.984L1.68156e-06 327.988L217.847 327.988C253.758 327.988 282.968 357.143 282.968 392.988Z" fill="#ABD5FF"/>
<path d="M271.936 392.988C271.936 422.756 247.671 446.977 217.847 446.977L2.62622e-07 446.977L2.74508e-07 445.98L217.847 445.98C247.117 445.98 270.938 422.204 270.938 392.988C270.938 363.772 247.117 339.996 217.847 339.996L1.53836e-06 339.996L1.55025e-06 338.999L217.847 338.999C247.671 338.999 271.936 363.22 271.936 392.988Z" fill="#ABD5FF"/>
<path d="M260.904 392.988C260.904 416.692 241.583 435.965 217.847 435.965L3.93934e-07 435.965L4.05819e-07 434.969L217.847 434.969C241.042 434.969 259.906 416.14 259.906 392.988C259.906 369.836 241.042 351.007 217.847 351.007L1.40705e-06 351.007L1.41893e-06 350.011L217.847 350.011C241.583 350.011 260.904 369.296 260.904 392.988Z" fill="#ABD5FF"/>
</g>
<mask id="mask0_45_32" style="mask-type:alpha" maskUnits="userSpaceOnUse" x="0" y="0" width="398" height="437">
<ellipse cx="199" cy="218.5" rx="199" ry="218.5" fill="white"/>
</mask>
<g mask="url(#mask0_45_32)">
<rect y="-2" width="398" height="445" fill="url(#paint0_linear_45_32)"/>
</g>
<circle cx="252" cy="443" r="32" fill="#59A5F1"/>
<defs>
<linearGradient id="paint0_linear_45_32" x1="387.859" y1="33.4229" x2="193.269" y2="343.125" gradientUnits="userSpaceOnUse">
<stop stop-color="white" stop-opacity="0.47"/>
<stop offset="1" stop-color="white" stop-opacity="0"/>
</linearGradient>
</defs>
</svg>
