<svg width="22" height="20" viewBox="0 0 22 20" fill="none" xmlns="http://www.w3.org/2000/svg">
<path d="M15 19V17C15 15.9391 14.5786 14.9217 13.8284 14.1716C13.0783 13.4214 12.0609 13 11 13H5C3.93913 13 2.92172 13.4214 2.17157 14.1716C1.42143 14.9217 1 15.9391 1 17V19" fill="white"/>
<path d="M8 9C10.2091 9 12 7.20914 12 5C12 2.79086 10.2091 1 8 1C5.79086 1 4 2.79086 4 5C4 7.20914 5.79086 9 8 9Z" fill="white"/>
<path d="M15 9L17 11L21 7" fill="white"/>
<path d="M15 19V17C15 15.9391 14.5786 14.9217 13.8284 14.1716C13.0783 13.4214 12.0609 13 11 13H5C3.93913 13 2.92172 13.4214 2.17157 14.1716C1.42143 14.9217 1 15.9391 1 17V19M15 9L17 11L21 7M12 5C12 7.20914 10.2091 9 8 9C5.79086 9 4 7.20914 4 5C4 2.79086 5.79086 1 8 1C10.2091 1 12 2.79086 12 5Z" stroke="#343B56" stroke-width="2" stroke-linecap="round" stroke-linejoin="round"/>
</svg>
